<svg xmlns="http://www.w3.org/2000/svg" width="118.691" height="164.719" viewBox="0 0 118.691 164.719">
  <title>Metamodernist_V2</title>
  <g>
    <path d="M107.789,148.327c-16.346,0-32.733-12.785-48.674-25.223C39.87,108.086,19.971,92.555.508,99.941a.375.375,0,0,1-.266-.7c19.852-7.535,39.925,8.127,59.335,23.273,19.244,15.015,39.141,30.542,58.606,23.162a.375.375,0,1,1,.266.7A29.772,29.772,0,0,1,107.789,148.327Z"/>
    <path d="M104.657,131.959c-15.3,0-30.6-10.451-45.523-20.636C39.894,98.188,20,84.607.537,93.889a.376.376,0,0,1-.323-.678c19.853-9.464,39.928,4.238,59.343,17.493,19.24,13.136,39.137,26.716,58.6,17.435a.375.375,0,1,1,.323.677A31.656,31.656,0,0,1,104.657,131.959Z"/>
    <path d="M101.285,115.907c-14.164,0-28.312-8.279-42.129-16.364C39.921,88.288,20.028,76.648.562,87.834a.375.375,0,0,1-.374-.65c19.848-11.4,39.927.348,59.347,11.712,19.235,11.255,39.126,22.893,58.594,11.708a.375.375,0,0,1,.374.651A33.9,33.9,0,0,1,101.285,115.907Z"/>
    <path d="M97.612,100.2c-12.924,0-25.815-6.286-38.43-12.436C39.949,78.386,20.061,68.688.584,81.78a.375.375,0,0,1-.418-.623C20,67.826,40.088,77.618,59.51,87.089c19.233,9.377,39.119,19.073,58.6,5.982a.375.375,0,0,1,.418.623A36.543,36.543,0,0,1,97.612,100.2Z"/>
    <path d="M93.541,84.867c-11.548,0-23.05-4.486-34.332-8.887C39.98,68.481,20.094,60.724.6,75.725a.375.375,0,1,1-.457-.594c19.823-15.258,39.91-7.425,59.335.151,19.23,7.5,39.115,15.257,58.606.256a.375.375,0,0,1,.457.594A39.687,39.687,0,0,1,93.541,84.867Z"/>
    <path d="M88.916,69.957c-9.981,0-19.91-2.9-29.676-5.76C40.01,58.574,20.124,52.758.621,69.671A.375.375,0,1,1,.13,69.1c19.81-17.18,39.9-11.307,59.321-5.626C78.682,69.1,98.569,74.917,118.071,58a.375.375,0,0,1,.491.566C108.711,67.113,98.788,69.956,88.916,69.957Z"/>
    <path d="M.375,63.722a.375.375,0,0,1-.26-.645c19.8-19.1,39.88-15.186,59.3-11.4,19.234,3.75,39.122,7.624,58.639-11.2a.374.374,0,1,1,.52.539c-19.8,19.1-39.88,15.186-59.3,11.4C40.041,48.665,20.153,44.789.635,63.616A.373.373,0,0,1,.375,63.722Z"/>
    <path d="M.375,57.681a.381.381,0,0,1-.257-.1.375.375,0,0,1-.016-.53c19.783-21.017,39.863-19.065,59.28-17.173,19.238,1.871,39.13,3.807,58.661-16.941a.375.375,0,1,1,.546.513C98.806,44.465,78.728,42.513,59.309,40.622c-19.237-1.87-39.13-3.808-58.661,16.94A.372.372,0,0,1,.375,57.681Z"/>
    <path d="M.375,51.641a.376.376,0,0,1-.284-.62c19.77-22.93,39.842-22.936,59.254-22.941,19.244,0,39.143-.01,58.687-22.681a.375.375,0,1,1,.568.491C98.831,28.819,78.758,28.825,59.346,28.83,40.1,28.835,20.2,28.84.659,51.511A.374.374,0,0,1,.375,51.641Z"/>
    <path d="M106.522,164.719a.375.375,0,0,1-.375-.375V.375a.375.375,0,0,1,.75,0V164.344A.375.375,0,0,1,106.522,164.719Z"/>
    <path d="M94.728,161.113a.375.375,0,0,1-.375-.375V8.275a.375.375,0,0,1,.75,0V160.738A.375.375,0,0,1,94.728,161.113Z"/>
    <path d="M82.934,154.225a.375.375,0,0,1-.375-.375V12.9a.375.375,0,1,1,.75,0V153.85A.375.375,0,0,1,82.934,154.225Z"/>
    <path d="M71.14,145.147a.375.375,0,0,1-.375-.375V15.324a.375.375,0,1,1,.75,0V144.772A.375.375,0,0,1,71.14,145.147Z"/>
    <path d="M59.345,134.977a.375.375,0,0,1-.375-.375V16.661a.375.375,0,0,1,.75,0V134.6A.375.375,0,0,1,59.345,134.977Z"/>
    <path d="M47.551,124.806a.375.375,0,0,1-.375-.375V18a.375.375,0,0,1,.75,0V124.431A.374.374,0,0,1,47.551,124.806Z"/>
    <path d="M35.757,115.729a.375.375,0,0,1-.375-.375V20.428a.375.375,0,0,1,.75,0v94.926A.375.375,0,0,1,35.757,115.729Z"/>
    <path d="M23.963,108.841a.375.375,0,0,1-.375-.375V25.046a.375.375,0,0,1,.75,0v83.42A.375.375,0,0,1,23.963,108.841Z"/>
    <path d="M12.169,105.235a.375.375,0,0,1-.375-.375V32.947a.375.375,0,0,1,.75,0V104.86A.375.375,0,0,1,12.169,105.235Z"/>
  </g>
</svg>
