<svg xmlns="http://www.w3.org/2000/svg" width="169.457" height="169.458" viewBox="0 0 169.457 169.458">
  <title>Metamodernist_V2</title>
  <path d="M85.445,169.458a.611.611,0,0,1-.617-.582l-2.516-41.32a2.894,2.894,0,0,0-5.617-.69L64.242,166.345a.619.619,0,0,1-1.2-.31l8.264-40.557a2.9,2.9,0,0,0-5.249-2.122L43.816,158.261a.618.618,0,0,1-1.075-.608l18.484-37.048a2.893,2.893,0,0,0-4.517-3.406L26.179,145.167a.619.619,0,0,1-.882-.866l27.439-31a2.895,2.895,0,0,0-3.483-4.461L12.531,127.954a.619.619,0,0,1-.626-1.065l34.524-22.838a2.9,2.9,0,0,0-2.21-5.211L3.8,107.8a.618.618,0,0,1-.33-1.19L42.736,93.48a2.9,2.9,0,0,0-.786-5.605L.591,86.064a.618.618,0,0,1-.01-1.235L41.9,82.312a2.894,2.894,0,0,0,.691-5.617L3.112,64.242a.619.619,0,0,1,.31-1.2L43.98,71.309A2.9,2.9,0,0,0,46.1,66.06L11.2,43.816a.618.618,0,0,1,.608-1.075L48.853,61.226a2.893,2.893,0,0,0,3.405-4.518L24.291,26.179a.619.619,0,0,1,.866-.881l31,27.439a2.895,2.895,0,0,0,4.461-3.484L41.5,12.532a.618.618,0,0,1,1.064-.627L65.407,46.43a2.895,2.895,0,0,0,5.21-2.21L61.663,3.8a.618.618,0,0,1,1.19-.329L75.978,42.736a2.895,2.895,0,0,0,5.605-.786L83.394.591A.609.609,0,0,1,84.006,0h.006a.611.611,0,0,1,.617.582L87.145,41.9a2.895,2.895,0,0,0,5.617.69L105.215,3.113a.619.619,0,0,1,1.2.309L98.148,43.98A2.9,2.9,0,0,0,103.4,46.1L125.641,11.2a.619.619,0,0,1,1.075.609L108.232,48.853a2.894,2.894,0,0,0,4.518,3.406l30.528-27.968a.619.619,0,0,1,.881.866l-27.438,31a2.894,2.894,0,0,0,3.483,4.46L156.926,41.5a.618.618,0,0,1,.626,1.065L123.028,65.407a2.895,2.895,0,0,0,2.21,5.21l40.415-8.954a.619.619,0,0,1,.33,1.191L126.721,75.978a2.9,2.9,0,0,0,.786,5.605l41.359,1.811a.618.618,0,0,1,.01,1.235l-41.32,2.517a2.894,2.894,0,0,0-.691,5.617l39.48,12.453a.619.619,0,0,1-.31,1.2l-40.557-8.263a2.9,2.9,0,0,0-2.122,5.249l34.905,22.243a.619.619,0,0,1-.609,1.075l-37.047-18.484a2.894,2.894,0,0,0-3.406,4.518l27.968,30.529a.619.619,0,0,1-.866.881l-31-27.439a2.9,2.9,0,0,0-4.461,3.484l19.11,36.721a.618.618,0,0,1-1.064.627L104.05,123.028a2.895,2.895,0,0,0-5.21,2.21l8.954,40.416a.618.618,0,0,1-1.19.33L93.479,126.722a2.894,2.894,0,0,0-5.6.786l-1.811,41.358a.611.611,0,0,1-.613.591Zm-6.051-45.291a3.692,3.692,0,0,1,.455.028,3.591,3.591,0,0,1,3.212,3.315l2.363,38.813,1.7-38.848a3.643,3.643,0,0,1,7.064-.991l12.329,36.88L98.107,125.4a3.645,3.645,0,0,1,6.569-2.786l21.451,32.428-17.949-34.491a3.644,3.644,0,0,1,5.623-4.391l29.115,25.772-26.27-28.676a3.642,3.642,0,0,1,4.293-5.694l34.8,17.362L122.953,104.03a3.645,3.645,0,0,1,2.674-6.616l38.1,7.762-37.087-11.7a3.644,3.644,0,0,1,.87-7.08l38.813-2.364-38.849-1.7a3.644,3.644,0,0,1-.991-7.065l36.88-12.328L125.4,71.35a3.645,3.645,0,0,1-2.786-6.569L155.042,43.33,120.55,61.279a3.644,3.644,0,0,1-4.391-5.622l25.772-29.114L113.256,52.812a3.643,3.643,0,0,1-5.695-4.294l17.363-34.8L104.03,46.505a3.646,3.646,0,0,1-6.617-2.674l7.763-38.1-11.7,37.087a3.644,3.644,0,0,1-7.081-.87L84.033,3.134l-1.7,38.849a3.644,3.644,0,0,1-7.065.991L62.939,6.1,71.35,44.058a3.645,3.645,0,0,1-6.569,2.786L43.33,14.416,61.279,48.907A3.644,3.644,0,0,1,55.656,53.3L26.538,27.522,52.811,56.2a3.643,3.643,0,0,1-4.293,5.7l-34.8-17.363L46.5,65.427a3.646,3.646,0,0,1-2.674,6.617L5.735,64.283l37.082,11.7a3.644,3.644,0,0,1-.87,7.081L3.134,85.425l38.849,1.7a3.644,3.644,0,0,1,.991,7.064L6.094,106.519l37.963-8.411a3.645,3.645,0,0,1,2.786,6.569L14.412,126.129l34.494-17.951A3.645,3.645,0,0,1,53.3,113.8L27.522,142.92,56.2,116.647a3.643,3.643,0,0,1,5.7,4.293l-17.362,34.8,20.893-32.786a3.646,3.646,0,0,1,6.617,2.674l-7.763,38.1,11.7-37.087A3.566,3.566,0,0,1,79.394,124.167Zm86.724-18.236h0Z"/>
</svg>
