<svg xmlns="http://www.w3.org/2000/svg" width="134.736" height="127.448" viewBox="0 0 134.736 127.448">
  <title>Metamodernist_V2</title>
  <g>
    <path d="M134.736,55.471c-25.035-8.2-40.022-7.221-51.471-3.559,5.106-9.557,16.208-18.5,32.164-27.663-5.077-3.54-9.075-6.645-11.993-10.185C87.481,25.116,76.378,36.384,71.273,47.039,68.429,36.41,69.124,23.1,79.867.6H62.907c-8.206,25.034-7.222,40.021-3.56,51.471-9.557-5.106-18.5-16.208-27.662-32.164C28.146,24.987,25.039,28.984,21.5,31.9,32.552,47.856,43.82,58.96,54.475,64.065c-10.63,2.843-23.939,2.148-46.437-8.594v16.96c25.035,8.2,40.022,7.224,51.471,3.559C54.4,85.548,43.3,94.493,27.345,103.652c5.078,3.541,9.075,6.647,11.992,10.186C55.293,102.786,66.4,91.52,71.5,80.863c2.844,10.63,2.149,23.937-8.594,46.437h16.96c8.206-25.036,7.222-40.022,3.56-51.471,9.557,5.106,18.5,16.208,27.662,32.164,3.539-5.079,6.646-9.076,10.185-11.993C110.223,80.045,98.954,68.941,88.3,63.836c10.63-2.841,23.939-2.149,46.437,8.595Z"/>
    <g>
      <path d="M127.073,55.245c-25.035-8.206-40.022-7.222-51.471-3.56,5.1-9.557,16.208-18.5,32.164-27.663-5.078-3.539-9.075-6.645-11.993-10.185C79.818,24.889,68.715,36.158,63.61,46.812,60.766,36.184,61.461,22.873,72.2.375q-8.481,0-16.96,0c-8.206,25.034-7.222,40.021-3.56,51.472-9.557-5.106-18.5-16.209-27.662-32.164-3.539,5.077-6.646,9.074-10.185,11.992,11.052,15.954,22.32,27.059,32.975,32.163C36.182,66.681,22.873,65.987.375,55.245v16.96c25.035,8.2,40.022,7.223,51.471,3.559-5.106,9.558-16.208,18.5-32.164,27.662,5.078,3.541,9.075,6.646,11.992,10.186C47.63,102.56,58.732,91.293,63.838,80.636c2.843,10.631,2.149,23.937-8.594,46.437H72.2c8.206-25.036,7.222-40.021,3.56-51.471,9.557,5.106,18.5,16.209,27.662,32.164,3.539-5.079,6.646-9.076,10.185-11.993C102.56,79.819,91.291,68.714,80.636,63.61c10.63-2.841,23.938-2.15,46.437,8.595Z" fill="#fff"/>
      <path d="M54.649,127.448l.256-.536c11.437-23.953,10.886-36.765,8.821-45.2C58.484,91.989,47.5,103.1,31.888,113.92l-.284.2-.219-.267c-2.906-3.525-6.866-6.594-11.918-10.117l-.485-.338.513-.294c16.531-9.491,26.6-18,31.571-26.7C37.007,80.647,21.279,79.45.258,72.561L0,72.477V54.65l.536.256c23.95,11.435,36.765,10.886,45.2,8.82-10.277-5.24-21.392-16.221-32.21-31.838l-.2-.283.267-.22c3.528-2.908,6.595-6.867,10.116-11.917l.338-.485.295.513c9.491,16.531,18,26.6,26.7,31.571C46.8,37,48,21.274,54.888.258L54.973,0H72.8l-.256.537c-11.437,23.95-10.887,36.763-8.821,45.2,5.243-10.28,16.223-21.395,31.838-32.21l.284-.2.218.267c2.906,3.525,6.866,6.594,11.918,10.116l.485.338-.513.295c-16.532,9.492-26.6,18-31.57,26.7C90.448,46.8,106.176,48,127.19,54.888l.258.085V72.8l-.536-.256c-23.944-11.434-36.762-10.885-45.2-8.821C91.988,68.963,103.1,79.944,113.92,95.56l.2.283-.266.22c-3.532,2.909-6.6,6.868-10.117,11.918l-.337.485-.3-.513c-9.492-16.532-18-26.6-26.7-31.572,4.248,14.065,3.051,29.792-3.837,50.809l-.085.258Zm1.189-.75h16.1c4.672-14.309,9.234-32.977,3.473-50.982l-.281-.88.815.436c9.025,4.82,17.776,14.93,27.516,31.8,3.327-4.746,6.28-8.518,9.651-11.363-11-15.818-22.281-26.8-32.632-31.757l-.915-.438.98-.262c8.491-2.269,21.4-3.357,46.158,8.363V55.517c-14.307-4.672-32.973-9.233-50.981-3.474l-.881.281.436-.816c4.819-9.022,14.928-17.774,31.795-27.516-4.749-3.33-8.521-6.284-11.362-9.651-15.817,11-26.8,22.28-31.758,32.633l-.438.915-.262-.98c-2.27-8.488-3.358-21.4,8.363-46.159H55.516c-4.672,14.308-9.235,32.976-3.474,50.983l.281.88-.815-.436c-9.025-4.821-17.776-14.93-27.516-31.8-3.329,4.746-6.283,8.518-9.651,11.362,11,15.821,22.281,26.8,32.633,31.757l.915.439-.981.262C38.421,66.471,25.514,67.559.75,55.838v16.1c14.311,4.671,32.981,9.234,50.981,3.474l.881-.283-.435.817c-4.822,9.024-14.931,17.775-31.8,27.516,4.748,3.33,8.52,6.285,11.362,9.651,15.82-11,26.8-22.28,31.758-32.634l.439-.914.261.98C67.565,93.12,64.987,107.374,55.838,126.7Z"/>
    </g>
  </g>
</svg>
