<svg xmlns="http://www.w3.org/2000/svg" width="377.836" height="109.508" viewBox="0 0 377.836 109.508">
  <title>Metamodernist_V2</title>
  <g>
    <path d="M377.836,109.508H39.3A39.348,39.348,0,0,1,0,70.2V0H338.533a39.347,39.347,0,0,1,39.3,39.3ZM.75.75V70.2A38.6,38.6,0,0,0,39.3,108.758H377.086V39.3A38.6,38.6,0,0,0,338.533.75Z"/>
    <g>
      <rect x="10.057" y="8.684" width="1.878" height="12.489"/>
      <rect x="13.813" y="8.684" width="1.878" height="12.489"/>
      <rect x="17.568" y="8.684" width="3.756" height="12.489"/>
      <rect x="26.957" y="8.684" width="1.878" height="12.489"/>
      <rect x="30.713" y="8.684" width="1.878" height="12.489"/>
      <rect x="40.102" y="8.684" width="1.878" height="12.489"/>
      <rect x="43.857" y="8.684" width="7.511" height="12.489"/>
      <rect x="53.246" y="8.684" width="1.878" height="12.489"/>
      <rect x="57.002" y="8.684" width="1.878" height="12.489"/>
      <rect x="64.513" y="8.684" width="3.756" height="12.489"/>
      <rect x="70.146" y="8.684" width="5.633" height="12.489"/>
      <rect x="79.535" y="8.684" width="1.878" height="12.489"/>
      <rect x="83.291" y="8.684" width="1.878" height="12.489"/>
      <rect x="92.68" y="8.684" width="1.878" height="12.489"/>
      <rect x="96.435" y="8.684" width="1.878" height="12.489"/>
      <rect x="100.191" y="8.684" width="1.878" height="12.489"/>
      <rect x="103.946" y="8.684" width="1.878" height="12.489"/>
      <rect x="107.702" y="8.684" width="5.633" height="12.489"/>
      <rect x="117.091" y="8.684" width="1.878" height="12.489"/>
      <rect x="122.724" y="8.684" width="5.633" height="12.489"/>
      <rect x="130.235" y="8.684" width="3.755" height="12.489"/>
      <rect x="135.869" y="8.684" width="3.756" height="12.489"/>
      <rect x="143.38" y="8.684" width="1.878" height="12.489"/>
      <rect x="149.013" y="8.684" width="5.633" height="12.489"/>
      <rect x="156.524" y="8.684" width="1.878" height="12.489"/>
      <rect x="165.913" y="8.684" width="1.878" height="12.489"/>
      <rect x="169.669" y="8.684" width="5.633" height="12.489"/>
      <rect x="179.057" y="8.684" width="1.878" height="12.489"/>
      <rect x="182.813" y="8.684" width="1.878" height="12.489"/>
      <rect x="186.569" y="8.684" width="1.878" height="12.489"/>
    </g>
  </g>
</svg>
