<svg xmlns="http://www.w3.org/2000/svg" width="126.996" height="49.828" viewBox="0 0 126.996 49.828">
  <title>Metamodernist_V2</title>
  <g>
    <path d="M63.5,49.828C28.485,49.828,0,38.651,0,24.914S28.485,0,63.5,0,127,11.177,127,24.914,98.511,49.828,63.5,49.828ZM63.5.75C28.9.75.75,11.59.75,24.914S28.9,49.078,63.5,49.078s62.748-10.84,62.748-24.164S98.1.75,63.5.75Z"/>
    <path d="M63.5,49.828c-22.065,0-40.017-11.177-40.017-24.914S41.433,0,63.5,0s40.017,11.177,40.017,24.914S85.564,49.828,63.5,49.828ZM63.5.75C41.846.75,24.231,11.59,24.231,24.914S41.846,49.078,63.5,49.078s39.267-10.84,39.267-24.164S85.15.75,63.5.75Z"/>
    <rect x="63.123" y="0.375" width="0.75" height="49.078"/>
    <path d="M63.5,49.828c-28.378,0-51.465-11.177-51.465-24.914S35.12,0,63.5,0s51.465,11.177,51.465,24.914S91.876,49.828,63.5,49.828ZM63.5.75C35.534.75,12.783,11.59,12.783,24.914S35.534,49.078,63.5,49.078s50.715-10.84,50.715-24.164S91.462.75,63.5.75Z"/>
    <path d="M63.5,49.828c-14.3,0-25.937-11.177-25.937-24.914S49.2,0,63.5,0,89.436,11.177,89.436,24.914,77.8,49.828,63.5,49.828ZM63.5.75C49.609.75,38.311,11.59,38.311,24.914S49.609,49.078,63.5,49.078s25.188-10.84,25.188-24.164S77.387.75,63.5.75Z"/>
    <rect x="0.375" y="24.539" width="126.246" height="0.75"/>
  </g>
</svg>
